<svg width="780" height="160" viewBox="0 0 780 160" fill="none" xmlns="http://www.w3.org/2000/svg" role="img" aria-labelledby="title desc">
  <title id="title">Shark OS</title>
  <desc id="desc">Logo provisório azul do Shark OS alinhado à identidade ZENK.</desc>
  <rect width="780" height="160" rx="28" fill="white"/>
  <g transform="translate(34 37)">
    <path d="M7 66L91 6L198 38L91 86L57 74L25 90L7 66Z" fill="url(#markGradient)"/>
    <path d="M91 6L124 0L198 38L91 86L124 38L91 6Z" fill="#0E1B3D" fill-opacity="0.92"/>
    <path d="M25 90L57 74L91 86L55 96L25 90Z" fill="#2563EB"/>
  </g>
  <g fill="#0E1B3D">
    <path d="M282 58H221C214.4 58 211 60.7 211 66.1C211 71.5 214.4 74.2 221 74.2H259.8C280.3 74.2 291.2 82.8 291.2 99.2C291.2 116.2 278.3 126 256.8 126H187V107.8H254.7C262.1 107.8 265.8 105 265.8 99.4C265.8 93.9 262.1 91.2 254.7 91.2H216.9C196.6 91.2 185.8 82.5 185.8 66.5C185.8 49.9 198.3 40 219.1 40H282V58Z"/>
    <path d="M325.5 40V73.3H383.6V40H408.8V126H383.6V91.9H325.5V126H300.4V40H325.5Z"/>
    <path d="M464.8 40H493.1L535.2 126H508.5L500.7 108.4H456.7L449.1 126H422.9L464.8 40ZM463.9 91.6H493.6L478.8 58.2L463.9 91.6Z"/>
    <path d="M549.5 40H606.9C626.7 40 638 50.3 638 68C638 80.7 632.2 89.7 621.6 94L642 126H613.8L596.3 97.8H574.6V126H549.5V40ZM574.6 58.5V79.6H603.7C609.6 79.6 612.7 75.8 612.7 68.9C612.7 62 609.6 58.5 603.7 58.5H574.6Z"/>
    <path d="M678.8 40V73.5L712.1 40H742.2L700.2 81.2L744 126H712.5L678.8 90.5V126H653.6V40H678.8Z"/>
  </g>
  <g transform="translate(188 132)" fill="#2563EB">
    <rect width="78" height="6" rx="3"/>
    <rect x="92" width="22" height="6" rx="3" fill="#0E1B3D" fill-opacity="0.18"/>
  </g>
  <defs>
    <linearGradient id="markGradient" x1="7" y1="90" x2="198" y2="6" gradientUnits="userSpaceOnUse">
      <stop stop-color="#0E1B3D"/>
      <stop offset="0.55" stop-color="#123E9F"/>
      <stop offset="1" stop-color="#2563EB"/>
    </linearGradient>
  </defs>
</svg>
